<svg width="160" height="160" viewBox="0 0 160 160" fill="none" xmlns="http://www.w3.org/2000/svg">
<path fill-rule="evenodd" clip-rule="evenodd" d="M86.6667 13.3333C83.1305 13.3333 79.7391 14.7381 77.2386 17.2386C74.7381 19.7391 73.3333 23.1305 73.3333 26.6667C73.3333 30.2029 74.7381 33.5943 77.2386 36.0948C79.7391 38.5952 83.1304 40 86.6667 40C90.2029 40 93.5943 38.5952 96.0948 36.0948C98.5952 33.5943 100 30.2029 100 26.6667C100 23.1305 98.5952 19.7391 96.0948 17.2386C93.5943 14.7381 90.2029 13.3333 86.6667 13.3333ZM70.9629 112.981C72.6094 109.688 71.2746 105.684 67.9814 104.037C64.6882 102.391 60.6838 103.725 59.0372 107.019L56.3144 112.464L27.9741 106.796C24.3637 106.074 20.8515 108.416 20.1295 112.026C19.4074 115.636 21.7488 119.148 25.3592 119.871L58.6926 126.537C61.6405 127.127 64.6184 125.67 65.9629 122.981L70.9629 112.981ZM71.8361 61.7648L66.7574 92.2373C66.348 94.6933 67.3414 97.1728 69.3333 98.6667L93.3333 116.667V140C93.3333 143.682 96.3181 146.667 100 146.667C103.682 146.667 106.667 143.682 106.667 140V113.333C106.667 111.235 105.679 109.259 104 108L80.5756 90.4317L84.4462 67.2077L95.286 78.0474C96.0178 78.7792 96.91 79.3306 97.8918 79.6579L117.892 86.3246C121.385 87.4889 125.16 85.6011 126.325 82.1082C127.489 78.6152 125.601 74.8398 122.108 73.6755L103.601 67.5065L84.769 48.6743C83.8474 47.7294 82.6382 47.0491 81.2496 46.7848C81.1275 46.7615 81.0047 46.7416 80.8813 46.7251C80.0799 46.6178 79.2908 46.6582 78.5423 46.8262L45.3592 53.4628C42.2431 54.086 40 56.8221 40 60V80C40 83.6819 42.9848 86.6667 46.6667 86.6667C50.3486 86.6667 53.3333 83.6819 53.3333 80V65.4654L71.8361 61.7648Z" fill="url(#paint0_linear_13_90)"/>
<defs>
<linearGradient id="paint0_linear_13_90" x1="85.3333" y1="38" x2="59.3333" y2="122" gradientUnits="userSpaceOnUse">
<stop stop-color="#EC4899"/>
<stop offset="1" stop-color="#2563EB"/>
</linearGradient>
</defs>
</svg>
